<!DOCTYPE svg PUBLIC "-//W3C//DTD SVG 20010904//EN" "http://www.w3.org/TR/2001/REC-SVG-20010904/DTD/svg10.dtd">
<svg version="1.0" xmlns="http://www.w3.org/2000/svg" width="392px" height="404px" viewBox="0 0 3920 4040" preserveAspectRatio="xMidYMid meet">
<g id="layer101" fill="#010101" stroke="none">
 <path d="M0 2020 l0 -2020 1960 0 1960 0 0 2020 0 2020 -1960 0 -1960 0 0 -2020z"/>
 </g>
<g id="layer102" fill="#262626" stroke="none">
 <path d="M0 2020 l0 -2020 1960 0 1960 0 0 2020 0 2020 -1960 0 -1960 0 0 -2020z m650 1611 c0 -17 -8 -20 -49 -23 l-50 -3 45 -53 c49 -60 57 -99 24 -132 -24 -24 -77 -26 -108 -4 -27 19 -31 50 -4 39 42 -18 60 -17 71 4 14 25 5 46 -51 112 -59 70 -54 79 42 79 73 0 80 -2 80 -19z m970 4 c0 -9 -9 -15 -25 -15 l-25 0 0 -110 c0 -105 -1 -110 -21 -110 -27 0 -79 37 -79 56 0 17 5 17 31 4 18 -10 19 -7 19 75 0 84 0 85 -25 85 -16 0 -25 6 -25 15 0 12 15 15 75 15 60 0 75 -3 75 -15z m900 1 c0 -8 -10 -16 -21 -18 -21 -3 -22 -8 -20 -110 2 -105 1 -108 -20 -108 -29 0 -89 38 -89 56 0 16 26 19 35 4 17 -27 25 -2 25 74 0 84 0 85 -27 88 -14 2 -28 9 -31 16 -3 9 16 12 72 12 59 0 76 -3 76 -14z m950 -11 c0 -16 6 -25 15 -25 8 0 15 -9 15 -20 0 -11 -7 -20 -15 -20 -11 0 -15 -18 -17 -77 l-3 -78 -30 0 c-26 0 -34 8 -72 75 -24 41 -43 85 -43 98 0 20 5 22 55 22 52 0 55 1 55 25 0 18 5 25 20 25 15 0 20 -7 20 -25z m-3015 -70 c0 -5 -21 -11 -47 -13 -39 -3 -48 0 -48 13 0 13 9 16 48 13 26 -2 47 -7 47 -13z m965 0 c0 -11 -12 -15 -45 -15 -33 0 -45 4 -45 15 0 11 12 15 45 15 33 0 45 -4 45 -15z m118 -930 c12 -15 22 -37 22 -51 0 -35 -42 -74 -80 -74 -25 0 -30 -4 -30 -24 0 -22 5 -25 43 -28 35 -3 43 -7 45 -26 3 -22 1 -23 -65 -20 l-68 3 -3 67 -3 67 48 3 c41 3 48 6 51 26 6 39 -16 55 -65 47 -35 -5 -43 -3 -43 9 0 44 109 45 148 1z m-971 3 c30 -28 32 -87 3 -113 -15 -13 -30 -16 -60 -12 -33 4 -40 2 -40 -12 0 -10 11 -28 24 -40 19 -18 31 -22 56 -16 27 6 31 4 28 -12 -5 -30 -78 -30 -114 1 -27 22 -29 31 -32 106 -4 67 -1 84 13 101 25 27 91 26 122 -3z m1917 -84 c26 -59 46 -114 44 -123 -3 -13 -19 -17 -86 -19 -82 -3 -82 -3 -82 23 0 24 3 25 55 25 l54 0 -18 43 c-11 23 -31 68 -45 100 l-26 57 29 0 c27 0 32 -7 75 -106z m1006 91 c0 -9 -9 -15 -25 -15 l-25 0 0 -110 c0 -123 -2 -126 -64 -89 -33 19 -52 58 -23 46 51 -21 48 -26 45 64 -3 83 -3 84 -30 87 -16 2 -28 9 -28 18 0 11 17 14 75 14 60 0 75 -3 75 -15z m-1932 -997 c3 -13 -3 -18 -22 -18 l-26 0 0 -110 c0 -125 -5 -130 -74 -89 -52 30 -47 66 5 39 18 -10 19 -7 19 75 0 83 0 85 -24 85 -14 0 -28 5 -31 10 -14 22 9 31 78 28 59 -2 72 -6 75 -20z m1030 0 c3 -13 -3 -18 -22 -18 l-26 0 0 -110 c0 -106 -1 -110 -22 -110 -29 0 -93 49 -80 62 6 6 17 6 31 -1 21 -11 21 -10 21 74 0 83 0 85 -24 85 -14 0 -28 5 -31 10 -14 22 9 31 78 28 59 -2 72 -6 75 -20z m880 -11 c28 -26 30 -77 3 -101 -10 -9 -35 -20 -55 -23 -31 -5 -36 -9 -36 -34 0 -26 3 -28 48 -31 34 -2 47 -7 47 -18 0 -12 -14 -15 -65 -15 l-65 0 -3 67 -3 68 29 -6 c45 -9 74 11 70 49 -3 32 -3 32 -56 31 -44 -2 -53 1 -50 15 7 34 96 33 136 -2z m-2878 8 c0 -12 -13 -15 -55 -15 l-56 0 51 -62 c29 -37 50 -73 50 -87 0 -31 -37 -71 -65 -71 -41 0 -85 21 -85 41 0 20 15 26 25 9 10 -15 55 -12 61 5 10 26 -4 60 -46 112 -60 76 -56 83 40 83 64 0 80 -3 80 -15z m1800 -75 c0 -17 -7 -20 -50 -20 -35 0 -50 4 -50 13 0 22 11 27 57 27 36 0 43 -3 43 -20z m-856 -921 c32 -25 34 -64 4 -96 -20 -21 -20 -24 -5 -41 40 -44 6 -102 -58 -102 -65 0 -100 58 -63 105 19 24 19 24 -2 45 -27 27 -26 74 2 94 32 23 90 20 122 -5z m1016 4 c46 -31 53 -63 20 -98 -19 -20 -19 -24 -5 -52 31 -63 -15 -106 -94 -87 -26 7 -37 15 -39 31 -3 20 -1 21 26 11 35 -14 62 -5 62 20 0 25 -19 42 -47 42 -37 0 -26 26 15 36 32 8 37 13 37 39 0 30 -1 30 -52 29 -40 -1 -53 2 -53 12 0 33 90 44 130 17z m907 2 c31 -21 46 -78 40 -143 -10 -96 -72 -130 -136 -76 -30 25 -31 29 -31 101 0 41 5 83 11 94 19 37 80 49 116 24z m-2869 -7 c-3 -7 -14 -14 -26 -16 -21 -3 -22 -8 -22 -108 0 -98 -1 -104 -20 -104 -30 0 -80 28 -80 45 0 18 5 18 31 5 18 -10 19 -7 19 75 0 84 0 85 -25 85 -16 0 -25 6 -25 15 0 12 15 15 76 15 56 0 75 -3 72 -12z m1802 -78 c0 -17 -7 -20 -44 -20 -28 0 -46 5 -49 14 -8 21 2 26 50 26 36 0 43 -3 43 -20z"/>
 <path d="M3360 3552 c0 -4 11 -24 25 -44 14 -20 25 -41 25 -47 0 -5 5 -13 10 -16 6 -4 10 17 10 54 l0 61 -35 0 c-19 0 -35 -3 -35 -8z"/>
 <path d="M482 2608 c-29 -29 -3 -84 35 -76 25 5 40 52 23 72 -15 19 -41 21 -58 4z"/>
 <path d="M1440 597 c0 -14 7 -30 16 -38 21 -17 49 0 49 32 0 20 -6 25 -32 27 -29 3 -33 0 -33 -21z"/>
 <path d="M1450 485 c-18 -21 -5 -45 25 -45 14 0 28 7 31 15 7 17 -12 45 -31 45 -7 0 -18 -7 -25 -15z"/>
 <path d="M3380 601 c-14 -28 -12 -123 4 -143 16 -22 52 -23 60 -2 11 28 6 140 -6 152 -18 18 -46 14 -58 -7z"/>
 </g>
<g id="layer103" fill="#535545" stroke="none">
 <path d="M47 3993 c-4 -3 -7 -219 -7 -480 l0 -473 465 0 465 0 0 480 0 480 -458 0 c-252 0 -462 -3 -465 -7z m603 -363 c0 -17 -7 -20 -52 -20 l-52 0 31 -32 c69 -74 83 -133 41 -162 -43 -30 -128 -13 -128 25 0 16 4 19 18 14 9 -5 28 -8 42 -9 21 -1 25 4 28 31 3 27 -5 41 -42 81 -25 27 -46 59 -46 71 0 20 5 21 80 21 73 0 80 -2 80 -20z m-195 -75 c0 -5 -21 -11 -47 -13 -39 -3 -48 0 -48 13 0 13 9 16 48 13 26 -2 47 -7 47 -13z"/>
 <path d="M1010 3520 l0 -480 463 0 462 0 -2 477 -3 478 -460 3 -460 2 0 -480z m610 115 c0 -9 -9 -15 -25 -15 l-25 0 0 -110 c0 -105 -1 -110 -21 -110 -27 0 -79 37 -79 56 0 17 5 17 31 4 18 -10 19 -7 19 75 0 84 0 85 -25 85 -16 0 -25 6 -25 15 0 12 15 15 75 15 60 0 75 -3 75 -15z m-200 -80 c0 -11 -12 -15 -45 -15 -33 0 -45 4 -45 15 0 11 12 15 45 15 33 0 45 -4 45 -15z"/>
 <path d="M1980 3520 l0 -480 465 0 465 0 -2 478 -3 477 -462 3 -463 2 0 -480z m540 116 c0 -8 -10 -16 -21 -18 -21 -3 -22 -8 -20 -110 2 -105 1 -108 -20 -108 -29 0 -89 38 -89 56 0 16 26 19 35 4 17 -27 25 -2 25 74 0 84 0 85 -27 88 -14 2 -28 9 -31 16 -3 9 16 12 72 12 59 0 76 -3 76 -14z"/>
 <path d="M2950 3520 l0 -480 465 0 465 0 -2 478 -3 477 -462 3 -463 2 0 -480z m520 105 c0 -16 6 -25 15 -25 8 0 15 -9 15 -20 0 -11 -7 -20 -16 -20 -13 0 -15 -13 -13 -77 l2 -78 -34 0 c-31 0 -36 5 -76 75 -24 41 -43 85 -43 98 0 20 5 22 55 22 52 0 55 1 55 25 0 18 5 25 20 25 15 0 20 -7 20 -25z"/>
 <path d="M3360 3555 c0 -14 57 -94 63 -89 4 4 7 27 7 51 0 43 0 43 -35 43 -19 0 -35 -2 -35 -5z"/>
 <path d="M47 2993 c-4 -3 -7 -219 -7 -480 l0 -473 463 2 462 3 3 478 2 477 -458 0 c-252 0 -462 -3 -465 -7z m502 -348 c33 -16 41 -33 41 -79 0 -47 -29 -70 -80 -63 -34 4 -40 2 -40 -13 0 -30 49 -62 83 -54 24 5 28 3 25 -13 -5 -29 -78 -30 -113 -1 -42 37 -55 164 -21 207 24 30 65 37 105 16z"/>
 <path d="M482 2608 c-7 -7 -12 -21 -12 -33 0 -46 53 -62 71 -21 21 45 -26 87 -59 54z"/>
 <path d="M1467 2992 l-457 -2 2 -473 3 -472 463 -3 462 -2 0 474 c0 261 -3 476 -7 478 -5 2 -214 2 -466 0z m71 -367 c12 -15 22 -37 22 -51 0 -35 -42 -74 -80 -74 -25 0 -30 -4 -30 -24 0 -22 5 -25 43 -28 35 -3 43 -7 45 -26 3 -22 1 -23 -65 -20 l-68 3 -3 67 -3 67 48 3 c41 3 48 6 51 26 6 39 -16 55 -65 47 -35 -5 -43 -3 -43 9 0 44 109 45 148 1z"/>
 <path d="M2438 2992 l-458 -2 0 -475 0 -475 465 0 465 0 0 474 c0 261 -3 476 -7 478 -5 2 -214 2 -465 0z m46 -448 c26 -59 46 -114 44 -123 -3 -13 -19 -17 -86 -19 -82 -3 -82 -3 -82 23 0 24 3 25 55 25 l54 0 -18 43 c-11 23 -31 68 -45 100 l-26 57 29 0 c27 0 32 -7 75 -106z"/>
 <path d="M2950 2520 l0 -480 465 0 465 0 -2 478 -3 477 -462 3 -463 2 0 -480z m540 116 c0 -8 -10 -16 -22 -18 -22 -3 -23 -8 -26 -110 -3 -120 -5 -123 -66 -87 -33 19 -52 58 -23 46 51 -21 48 -26 45 64 -3 83 -3 84 -30 87 -16 2 -28 9 -28 18 0 11 17 14 75 14 58 0 75 -3 75 -14z"/>
 <path d="M40 1517 l0 -477 463 2 462 3 3 475 2 475 -465 0 -465 0 0 -478z m550 118 c0 -11 -12 -15 -50 -15 -27 0 -50 -3 -50 -6 0 -3 18 -26 40 -52 46 -51 57 -83 44 -121 -12 -33 -52 -47 -101 -35 -28 7 -39 15 -41 32 -4 25 1 27 29 11 11 -5 29 -7 39 -4 37 12 18 75 -39 129 -17 17 -31 40 -31 53 0 22 3 23 80 23 64 0 80 -3 80 -15z"/>
 <path d="M1017 1993 c-4 -3 -7 -219 -7 -480 l0 -473 465 0 465 0 -2 478 -3 477 -456 3 c-250 1 -459 -1 -462 -5z m541 -355 c3 -13 -3 -18 -22 -18 l-26 0 0 -110 c0 -125 -5 -130 -74 -89 -52 30 -47 66 5 39 18 -10 19 -7 19 75 0 83 0 85 -24 85 -14 0 -28 5 -31 10 -14 22 9 31 78 28 59 -2 72 -6 75 -20z"/>
 <path d="M1982 1523 l3 -478 463 -3 462 -2 -2 477 -3 478 -463 3 -462 2 2 -477z m606 115 c3 -13 -3 -18 -22 -18 l-26 0 0 -110 c0 -106 -1 -110 -22 -110 -29 0 -93 49 -80 62 6 6 17 6 31 -1 21 -11 21 -10 21 74 0 83 0 85 -24 85 -14 0 -28 5 -31 10 -14 22 9 31 78 28 59 -2 72 -6 75 -20z m-198 -78 c0 -17 -7 -20 -50 -20 -35 0 -50 4 -50 13 0 22 11 27 57 27 36 0 43 -3 43 -20z"/>
 <path d="M2950 1518 l0 -478 465 0 465 0 0 478 0 477 -465 0 -465 0 0 -477z m516 117 c18 -12 24 -24 24 -53 0 -20 -4 -42 -8 -48 -11 -18 -48 -34 -76 -34 -22 0 -26 -4 -26 -30 0 -29 1 -30 51 -30 43 0 50 -3 47 -17 -3 -15 -14 -18 -68 -18 l-65 0 -3 67 -3 67 48 3 c41 3 48 6 51 26 6 39 -16 55 -65 48 -34 -4 -43 -3 -43 10 0 35 88 41 136 9z"/>
 <path d="M42 523 l3 -478 463 -3 462 -2 0 480 0 480 -465 0 -465 0 2 -477z m548 112 c0 -9 -9 -15 -25 -15 l-25 0 0 -105 c0 -84 -3 -107 -15 -111 -19 -8 -85 33 -85 52 0 17 5 17 31 4 18 -10 19 -7 19 75 0 84 0 85 -25 85 -16 0 -25 6 -25 15 0 12 15 15 75 15 60 0 75 -3 75 -15z"/>
 <path d="M1010 520 l0 -480 460 2 460 3 3 478 2 477 -462 0 -463 0 0 -480z m524 119 c32 -25 34 -64 4 -96 -20 -21 -20 -24 -5 -41 40 -44 6 -102 -58 -102 -65 0 -100 58 -63 105 19 24 19 24 -2 45 -27 27 -26 74 2 94 32 23 90 20 122 -5z"/>
 <path d="M1440 597 c0 -14 7 -30 16 -38 21 -17 49 0 49 32 0 20 -6 25 -32 27 -29 3 -33 0 -33 -21z"/>
 <path d="M1450 485 c-18 -21 -5 -45 25 -45 14 0 28 7 31 15 7 17 -12 45 -31 45 -7 0 -18 -7 -25 -15z"/>
 <path d="M1980 520 l0 -480 463 2 462 3 0 475 0 475 -462 3 -463 2 0 -480z m570 123 c46 -31 53 -63 20 -98 -19 -20 -19 -24 -5 -52 31 -63 -15 -106 -94 -87 -26 7 -37 15 -39 31 -3 20 -1 21 26 11 35 -14 62 -5 62 20 0 25 -19 42 -47 42 -37 0 -26 26 15 36 32 8 37 13 37 39 0 30 -1 30 -52 29 -40 -1 -53 2 -53 12 0 33 90 44 130 17z m-160 -83 c0 -17 -7 -20 -44 -20 -28 0 -46 5 -49 14 -8 21 2 26 50 26 36 0 43 -3 43 -20z"/>
 <path d="M2957 993 c-4 -3 -7 -219 -7 -480 l0 -473 463 2 462 3 3 478 2 477 -458 0 c-252 0 -462 -3 -465 -7z m508 -357 c45 -45 47 -166 4 -213 -20 -21 -30 -24 -63 -20 -21 3 -45 12 -53 20 -40 39 -34 185 7 219 31 25 76 23 105 -6z"/>
 <path d="M3380 601 c-14 -28 -12 -123 4 -143 15 -21 37 -23 54 -6 16 16 16 140 0 156 -18 18 -46 14 -58 -7z"/>
 </g>
<g id="layer104" fill="#665c3d" stroke="none">
 <path d="M47 3993 c-4 -3 -7 -219 -7 -480 l0 -473 465 0 465 0 0 480 0 480 -458 0 c-252 0 -462 -3 -465 -7z m603 -363 c0 -17 -7 -20 -52 -20 l-52 0 43 -44 c77 -79 66 -166 -21 -166 -50 0 -78 15 -78 41 0 16 4 19 18 14 9 -5 28 -8 42 -9 21 -1 25 4 28 29 2 24 -7 41 -43 82 -25 28 -45 61 -45 72 0 20 6 21 80 21 73 0 80 -2 80 -20z m-195 -75 c0 -5 -21 -11 -47 -13 -39 -3 -48 0 -48 13 0 13 9 16 48 13 26 -2 47 -7 47 -13z"/>
 <path d="M1010 3520 l0 -480 463 0 462 0 -2 477 -3 478 -460 3 -460 2 0 -480z m610 115 c0 -9 -9 -15 -25 -15 l-25 0 0 -110 c0 -105 -1 -110 -21 -110 -27 0 -79 37 -79 56 0 17 5 17 31 4 18 -10 19 -7 19 75 0 84 0 85 -25 85 -16 0 -25 6 -25 15 0 12 15 15 75 15 60 0 75 -3 75 -15z m-200 -80 c0 -11 -12 -15 -45 -15 -33 0 -45 4 -45 15 0 11 12 15 45 15 33 0 45 -4 45 -15z"/>
 <path d="M1987 3993 c-4 -3 -7 -219 -7 -480 l0 -473 465 0 465 0 -2 478 -3 477 -456 3 c-250 1 -459 -1 -462 -5z m533 -357 c0 -8 -10 -16 -21 -18 -21 -3 -22 -8 -20 -110 2 -105 1 -108 -20 -108 -29 0 -89 38 -89 56 0 16 26 19 35 4 17 -27 25 -2 25 74 0 84 0 85 -27 88 -14 2 -28 9 -31 16 -3 9 16 12 72 12 59 0 76 -3 76 -14z"/>
 <path d="M2950 3520 l0 -480 465 0 465 0 -2 478 -3 477 -462 3 -463 2 0 -480z m520 105 c0 -16 6 -25 15 -25 8 0 15 -9 15 -20 0 -11 -7 -20 -16 -20 -13 0 -15 -13 -13 -77 l2 -78 -34 0 c-32 0 -37 5 -76 75 -24 41 -43 85 -43 97 0 21 5 23 55 23 52 0 55 1 55 25 0 18 5 25 20 25 15 0 20 -7 20 -25z"/>
 <path d="M3386 3510 c15 -27 31 -47 35 -44 5 3 9 25 9 50 0 44 0 44 -36 44 l-35 0 27 -50z"/>
 <path d="M47 2993 c-4 -3 -7 -219 -7 -480 l0 -473 463 2 462 3 0 475 0 475 -456 3 c-250 1 -459 -1 -462 -5z m525 -363 c23 -29 23 -92 0 -113 -9 -8 -36 -17 -59 -19 -42 -3 -42 -3 -30 -28 10 -20 21 -26 55 -28 34 -3 43 -7 40 -20 -5 -27 -77 -28 -111 -2 -52 41 -61 168 -14 218 18 20 29 23 62 19 24 -4 47 -14 57 -27z"/>
 <path d="M482 2608 c-18 -18 -14 -56 7 -68 39 -21 73 19 51 60 -12 22 -40 26 -58 8z"/>
 <path d="M1467 2992 l-457 -2 2 -473 3 -472 460 0 460 0 3 469 c1 259 -1 472 -5 475 -5 3 -214 5 -466 3z m71 -367 c12 -15 22 -37 22 -51 0 -35 -42 -74 -80 -74 -25 0 -30 -4 -30 -24 0 -22 5 -25 43 -28 35 -3 43 -7 45 -26 3 -22 1 -23 -65 -20 l-68 3 -3 67 -3 67 48 3 c41 3 48 6 51 26 6 39 -16 55 -65 47 -35 -5 -43 -3 -43 9 0 44 109 45 148 1z"/>
 <path d="M2950 2520 l0 -480 465 0 465 0 -2 478 -3 477 -462 3 -463 2 0 -480z m540 116 c0 -8 -10 -16 -22 -18 -22 -3 -23 -8 -26 -110 -2 -101 -4 -108 -23 -108 -25 0 -79 39 -79 57 0 15 26 18 35 3 18 -29 26 -3 23 73 -3 81 -3 82 -30 85 -16 2 -28 9 -28 18 0 11 17 14 75 14 58 0 75 -3 75 -14z"/>
 <path d="M1980 2515 l0 -475 460 0 460 0 0 475 0 475 -460 0 -460 0 0 -475z m502 35 c64 -142 64 -144 -39 -148 -83 -3 -83 -3 -83 22 0 23 4 25 54 28 l54 3 -43 95 c-24 52 -41 99 -38 103 3 5 15 7 26 5 17 -2 33 -27 69 -108z"/>
 <path d="M44 1985 c-2 -5 -3 -219 -2 -475 l3 -465 460 0 460 0 3 475 2 475 -461 0 c-299 0 -463 -4 -465 -10z m546 -350 c0 -11 -12 -15 -50 -15 -27 0 -50 -3 -50 -6 0 -3 18 -26 40 -52 46 -51 57 -83 44 -121 -12 -33 -52 -47 -101 -35 -29 7 -39 15 -41 33 -3 20 -1 23 15 16 39 -16 50 -16 62 -1 20 24 5 62 -44 115 -67 72 -63 81 40 81 69 0 85 -3 85 -15z"/>
 <path d="M1017 1993 c-4 -3 -7 -214 -7 -468 0 -379 2 -465 14 -474 9 -8 139 -10 462 -9 l449 3 0 475 0 475 -456 3 c-250 1 -459 -1 -462 -5z m541 -355 c3 -13 -3 -18 -22 -18 l-26 0 0 -110 c0 -125 -5 -130 -74 -89 -52 30 -47 66 5 39 18 -10 19 -7 19 75 0 83 0 85 -24 85 -14 0 -28 5 -31 10 -14 22 9 31 78 28 59 -2 72 -6 75 -20z"/>
 <path d="M1985 1988 c-3 -7 -4 -222 -3 -478 l3 -465 455 0 455 0 3 478 2 477 -455 0 c-355 0 -457 -3 -460 -12z m603 -350 c3 -13 -3 -18 -22 -18 l-26 0 0 -110 c0 -106 -1 -110 -22 -110 -29 0 -93 49 -80 62 6 6 17 6 31 -1 21 -11 21 -10 21 74 0 83 0 85 -24 85 -14 0 -28 5 -31 10 -14 22 9 31 78 28 59 -2 72 -6 75 -20z m-198 -78 c0 -17 -7 -20 -50 -20 -35 0 -50 4 -50 13 0 22 11 27 57 27 36 0 43 -3 43 -20z"/>
 <path d="M2950 1517 l0 -477 463 2 462 3 0 473 0 472 -463 3 -462 2 0 -478z m511 122 c23 -16 29 -28 29 -58 0 -51 -18 -71 -68 -78 -39 -5 -43 -8 -40 -32 3 -23 8 -26 51 -29 39 -3 48 -6 45 -20 -3 -14 -15 -17 -68 -17 l-65 0 -3 67 -3 67 48 3 c41 3 48 6 51 26 6 39 -16 55 -65 48 -38 -5 -43 -3 -43 13 0 23 13 29 63 30 24 1 50 -7 68 -20z"/>
 <path d="M45 988 c-3 -7 -4 -222 -3 -478 l3 -465 462 -3 463 -2 0 480 0 480 -460 0 c-359 0 -462 -3 -465 -12z m545 -348 c0 -15 -7 -20 -25 -20 l-25 0 0 -110 c0 -95 -2 -110 -16 -110 -25 0 -84 40 -84 56 0 17 5 17 31 4 18 -10 19 -7 19 75 0 84 0 85 -25 85 -18 0 -25 5 -25 20 0 18 7 20 75 20 68 0 75 -2 75 -20z"/>
 <path d="M1010 520 l0 -480 460 2 461 3 -1 469 c0 258 -3 472 -6 477 -3 5 -210 9 -460 9 l-454 0 0 -480z m524 119 c32 -25 34 -64 4 -96 -20 -21 -20 -24 -5 -41 40 -44 6 -102 -58 -102 -65 0 -100 58 -63 105 19 24 19 24 -2 45 -27 27 -26 74 2 94 32 23 90 20 122 -5z"/>
 <path d="M1440 597 c0 -14 7 -30 16 -38 21 -17 49 0 49 32 0 20 -6 25 -32 27 -29 3 -33 0 -33 -21z"/>
 <path d="M1450 485 c-18 -21 -5 -45 25 -45 14 0 28 7 31 15 7 17 -12 45 -31 45 -7 0 -18 -7 -25 -15z"/>
 <path d="M1982 523 l3 -478 460 0 460 0 0 475 0 475 -463 3 -462 2 2 -477z m568 120 c46 -31 53 -63 20 -98 -19 -20 -19 -24 -5 -52 31 -63 -15 -106 -94 -87 -26 7 -37 15 -39 31 -3 20 -1 21 26 11 35 -14 62 -5 62 20 0 25 -19 42 -47 42 -37 0 -26 26 15 36 32 8 37 13 37 39 0 30 -1 30 -52 29 -40 -1 -53 2 -53 12 0 33 90 44 130 17z m-160 -83 c0 -17 -7 -20 -44 -20 -28 0 -46 5 -49 14 -8 21 2 26 50 26 36 0 43 -3 43 -20z"/>
 <path d="M2957 993 c-4 -3 -7 -219 -7 -480 l0 -473 463 2 462 3 0 475 0 475 -456 3 c-250 1 -459 -1 -462 -5z m514 -362 c26 -26 29 -37 29 -89 0 -104 -24 -142 -90 -142 -45 0 -75 35 -84 98 -17 133 67 211 145 133z"/>
 <path d="M3380 601 c-14 -28 -12 -123 4 -143 32 -43 66 -5 66 72 0 55 -16 90 -39 90 -11 0 -25 -9 -31 -19z"/>
 </g>
<g id="layer105" fill="#6a7254" stroke="none">
 <path d="M47 3993 c-4 -3 -7 -219 -7 -480 l0 -473 465 0 465 0 0 480 0 480 -458 0 c-252 0 -462 -3 -465 -7z m603 -363 c0 -17 -7 -20 -52 -20 l-52 0 43 -44 c77 -79 66 -166 -21 -166 -50 0 -78 15 -78 41 0 16 4 19 18 14 9 -5 28 -8 42 -9 21 -1 25 4 28 29 2 24 -7 41 -43 82 -25 28 -45 61 -45 72 0 20 6 21 80 21 73 0 80 -2 80 -20z m-195 -75 c0 -5 -21 -11 -47 -13 -39 -3 -48 0 -48 13 0 13 9 16 48 13 26 -2 47 -7 47 -13z"/>
 <path d="M1010 3520 l0 -480 463 0 462 0 -2 477 -3 478 -460 3 -460 2 0 -480z m610 110 c0 -15 -7 -20 -25 -20 l-25 0 0 -105 c0 -100 -1 -105 -21 -105 -27 0 -79 37 -79 56 0 17 5 17 31 4 18 -10 19 -7 19 70 0 77 -1 80 -23 80 -29 0 -37 7 -30 26 4 10 25 14 79 14 67 0 74 -2 74 -20z m-200 -75 c0 -11 -12 -15 -50 -15 -46 0 -60 7 -43 23 3 4 26 7 50 7 32 0 43 -4 43 -15z"/>
 <path d="M1987 3993 c-4 -3 -7 -219 -7 -480 l0 -473 460 0 460 0 0 480 0 480 -453 0 c-250 0 -457 -3 -460 -7z m538 -363 c0 -8 -10 -16 -22 -18 -22 -3 -23 -7 -23 -108 0 -99 -1 -104 -21 -104 -29 0 -89 38 -89 56 0 16 26 19 35 4 17 -28 26 -4 23 68 -3 76 -3 77 -30 80 -20 2 -28 9 -28 23 0 18 6 20 78 17 60 -2 77 -6 77 -18z"/>
 <path d="M2950 3520 l0 -480 465 0 465 0 -2 478 -3 477 -462 3 -463 2 0 -480z m520 105 c0 -16 6 -25 15 -25 8 0 15 -9 15 -20 0 -11 -7 -20 -16 -20 -13 0 -15 -13 -13 -77 l2 -78 -34 0 c-32 0 -37 5 -76 75 -24 41 -43 85 -43 97 0 21 5 23 55 23 52 0 55 1 55 25 0 18 5 25 20 25 15 0 20 -7 20 -25z"/>
 <path d="M3386 3510 c15 -27 31 -47 35 -44 5 3 9 25 9 50 0 44 0 44 -36 44 l-35 0 27 -50z"/>
 <path d="M47 2993 c-4 -3 -7 -219 -7 -480 l0 -473 463 2 462 3 0 475 0 475 -456 3 c-250 1 -459 -1 -462 -5z m525 -363 c23 -29 23 -92 0 -113 -9 -8 -36 -17 -59 -19 -42 -3 -42 -3 -30 -28 10 -20 21 -26 55 -28 34 -3 43 -7 40 -20 -5 -27 -77 -28 -111 -2 -52 41 -61 168 -14 218 18 20 29 23 62 19 24 -4 47 -14 57 -27z"/>
 <path d="M482 2608 c-18 -18 -14 -56 7 -68 39 -21 73 19 51 60 -12 22 -40 26 -58 8z"/>
 <path d="M1467 2992 l-457 -2 2 -473 3 -472 460 0 460 0 3 469 c1 259 -1 472 -5 475 -5 3 -214 5 -466 3z m71 -367 c12 -15 22 -37 22 -51 0 -35 -42 -74 -80 -74 -25 0 -30 -4 -30 -24 0 -22 5 -25 43 -28 35 -3 43 -7 45 -26 3 -22 1 -23 -65 -20 l-68 3 -3 67 -3 67 48 3 c41 3 48 6 51 26 6 39 -16 55 -65 47 -35 -5 -43 -3 -43 9 0 44 109 45 148 1z"/>
 <path d="M2950 2520 l0 -480 465 0 465 0 -2 478 -3 477 -462 3 -463 2 0 -480z m540 116 c0 -8 -10 -16 -22 -18 -22 -3 -23 -8 -26 -110 -2 -101 -4 -108 -23 -108 -25 0 -79 39 -79 57 0 15 26 18 35 3 18 -29 26 -3 23 73 -3 81 -3 82 -30 85 -16 2 -28 9 -28 18 0 11 17 14 75 14 58 0 75 -3 75 -14z"/>
 <path d="M1980 2515 l0 -475 460 0 460 0 0 475 0 475 -460 0 -460 0 0 -475z m502 35 c64 -142 64 -144 -39 -148 -83 -3 -83 -3 -83 22 0 23 4 25 54 28 l54 3 -43 95 c-24 52 -41 99 -38 103 3 5 15 7 26 5 17 -2 33 -27 69 -108z"/>
 <path d="M44 1985 c-2 -5 -3 -219 -2 -475 l3 -465 460 0 460 0 3 475 2 475 -461 0 c-299 0 -463 -4 -465 -10z m546 -350 c0 -11 -12 -15 -50 -15 -27 0 -50 -3 -50 -6 0 -3 18 -26 40 -52 46 -51 57 -83 44 -121 -12 -33 -52 -47 -101 -35 -29 7 -39 15 -41 33 -3 20 -1 23 15 16 39 -16 50 -16 62 -1 20 24 5 62 -44 115 -67 72 -63 81 40 81 69 0 85 -3 85 -15z"/>
 <path d="M1017 1993 c-4 -3 -7 -214 -7 -468 0 -379 2 -465 14 -474 9 -8 139 -10 462 -9 l449 3 0 475 0 475 -456 3 c-250 1 -459 -1 -462 -5z m541 -355 c3 -13 -3 -18 -22 -18 l-26 0 0 -110 c0 -125 -5 -130 -74 -89 -52 30 -47 66 5 39 18 -10 19 -7 19 75 0 83 0 85 -24 85 -14 0 -28 5 -31 10 -14 22 9 31 78 28 59 -2 72 -6 75 -20z"/>
 <path d="M1985 1988 c-3 -7 -4 -222 -3 -478 l3 -465 455 0 455 0 3 478 2 477 -455 0 c-355 0 -457 -3 -460 -12z m603 -350 c3 -13 -3 -18 -22 -18 l-26 0 0 -110 c0 -106 -1 -110 -22 -110 -29 0 -93 49 -80 62 6 6 17 6 31 -1 21 -11 21 -10 21 74 0 83 0 85 -24 85 -14 0 -28 5 -31 10 -14 22 9 31 78 28 59 -2 72 -6 75 -20z m-198 -78 c0 -17 -7 -20 -50 -20 -35 0 -50 4 -50 13 0 22 11 27 57 27 36 0 43 -3 43 -20z"/>
 <path d="M2950 1517 l0 -477 463 2 462 3 0 473 0 472 -463 3 -462 2 0 -478z m511 122 c23 -16 29 -28 29 -58 0 -51 -18 -71 -68 -78 -39 -5 -43 -8 -40 -32 3 -23 8 -26 51 -29 39 -3 48 -6 45 -20 -3 -14 -15 -17 -68 -17 l-65 0 -3 67 -3 67 48 3 c41 3 48 6 51 26 6 39 -16 55 -65 48 -38 -5 -43 -3 -43 13 0 23 13 29 63 30 24 1 50 -7 68 -20z"/>
 <path d="M45 988 c-3 -7 -4 -222 -3 -478 l3 -465 462 -3 463 -2 0 480 0 480 -460 0 c-359 0 -462 -3 -465 -12z m545 -348 c0 -15 -7 -20 -25 -20 l-25 0 0 -110 c0 -95 -2 -110 -16 -110 -25 0 -84 40 -84 56 0 17 5 17 31 4 18 -10 19 -7 19 75 0 84 0 85 -25 85 -18 0 -25 5 -25 20 0 18 7 20 75 20 68 0 75 -2 75 -20z"/>
 <path d="M1022 988 c-9 -9 -12 -129 -12 -480 l0 -468 460 2 461 3 -1 469 c0 258 -3 472 -6 477 -9 15 -888 11 -902 -3z m525 -354 c20 -27 16 -65 -9 -92 -21 -22 -22 -24 -5 -33 25 -14 24 -85 -2 -99 -32 -17 -86 -12 -115 11 -32 25 -33 47 -5 83 l22 27 -22 15 c-30 21 -29 77 2 99 30 22 115 15 134 -11z"/>
 <path d="M1443 604 c-8 -22 10 -49 32 -49 10 0 22 7 28 16 15 24 1 49 -28 49 -15 0 -28 -7 -32 -16z"/>
 <path d="M1450 485 c-18 -21 -5 -45 25 -45 14 0 28 7 31 15 7 17 -12 45 -31 45 -7 0 -18 -7 -25 -15z"/>
 <path d="M1982 523 l3 -478 458 -3 457 -2 -2 477 -3 478 -458 3 -457 2 2 -477z m590 107 c24 -30 23 -75 -2 -93 -19 -13 -19 -15 -4 -46 31 -63 -16 -104 -95 -85 -26 7 -37 15 -39 31 -3 20 -1 21 26 11 35 -14 62 -5 62 20 0 25 -19 42 -47 42 -16 0 -23 6 -23 20 0 14 7 20 24 20 37 0 56 10 56 30 0 30 -26 43 -70 36 -42 -7 -53 6 -27 33 21 21 117 9 139 -19z m-182 -70 c0 -17 -7 -20 -50 -20 -35 0 -50 4 -50 13 0 22 11 27 57 27 36 0 43 -3 43 -20z"/>
 <path d="M2957 993 c-4 -3 -7 -219 -7 -480 l0 -473 463 2 462 3 0 475 0 475 -456 3 c-250 1 -459 -1 -462 -5z m514 -362 c26 -26 29 -37 29 -89 0 -104 -24 -142 -90 -142 -45 0 -75 35 -84 98 -17 133 67 211 145 133z"/>
 <path d="M3380 601 c-14 -28 -12 -123 4 -143 32 -43 66 -5 66 72 0 55 -16 90 -39 90 -11 0 -25 -9 -31 -19z"/>
 </g>
<g id="layer106" fill="#737373" stroke="none">
 <path d="M45 3988 c-3 -7 -4 -222 -3 -478 l3 -465 462 -3 463 -2 0 480 0 480 -460 0 c-359 0 -462 -3 -465 -12z m605 -358 c0 -17 -7 -20 -52 -20 l-52 0 43 -44 c77 -79 66 -166 -21 -166 -50 0 -78 15 -78 41 0 16 4 19 18 14 9 -5 28 -8 42 -9 21 -1 25 4 28 29 2 24 -7 41 -43 82 -25 28 -45 61 -45 72 0 20 6 21 80 21 73 0 80 -2 80 -20z m-195 -75 c0 -5 -21 -11 -47 -13 -39 -3 -48 0 -48 13 0 13 9 16 48 13 26 -2 47 -7 47 -13z"/>
 <path d="M2950 3520 l0 -480 463 2 462 3 0 475 0 475 -462 3 -463 2 0 -480z m520 105 c0 -16 6 -25 15 -25 8 0 15 -9 15 -20 0 -11 -7 -20 -16 -20 -13 0 -15 -13 -13 -77 l2 -78 -33 0 c-31 0 -37 6 -76 70 -24 39 -43 82 -43 98 -1 26 0 27 54 27 52 0 55 1 55 25 0 18 5 25 20 25 15 0 20 -7 20 -25z"/>
 <path d="M3386 3510 c15 -27 31 -47 35 -44 5 3 9 25 9 50 0 44 0 44 -36 44 l-35 0 27 -50z"/>
 <path d="M1017 3983 c-9 -8 -9 -906 -1 -927 5 -14 55 -16 460 -16 l454 0 0 475 0 475 -453 0 c-250 0 -457 -3 -460 -7z m603 -353 c0 -15 -7 -20 -25 -20 l-25 0 0 -105 c0 -97 -1 -105 -19 -105 -31 0 -91 39 -84 56 6 17 9 17 34 4 18 -10 19 -7 19 70 0 77 -1 80 -23 80 -29 0 -37 7 -30 26 4 10 25 14 79 14 67 0 74 -2 74 -20z m-200 -70 c0 -17 -7 -20 -50 -20 -35 0 -50 4 -50 13 0 22 11 27 57 27 36 0 43 -3 43 -20z"/>
 <path d="M1980 3515 l0 -475 460 0 460 0 0 475 0 475 -460 0 -460 0 0 -475z m547 111 c-4 -9 -16 -16 -27 -16 -19 0 -20 -6 -20 -105 0 -100 -1 -105 -21 -105 -29 0 -89 38 -89 56 0 10 9 14 28 12 l27 -3 0 70 c0 69 0 70 -27 73 -20 2 -28 9 -28 22 0 17 9 19 73 22 77 3 93 -2 84 -26z"/>
 <path d="M47 2993 c-4 -3 -7 -219 -7 -480 l0 -473 463 2 462 3 0 475 0 475 -456 3 c-250 1 -459 -1 -462 -5z m525 -363 c23 -29 23 -92 0 -113 -9 -8 -36 -17 -59 -19 -42 -3 -42 -3 -30 -28 10 -20 21 -26 55 -28 34 -3 43 -7 40 -20 -5 -27 -77 -28 -111 -2 -52 41 -61 168 -14 218 18 20 29 23 62 19 24 -4 47 -14 57 -27z"/>
 <path d="M482 2608 c-18 -18 -14 -56 7 -68 39 -20 68 11 51 55 -10 27 -38 33 -58 13z"/>
 <path d="M2957 2993 c-4 -3 -7 -219 -7 -480 l0 -473 465 0 465 0 -2 478 -3 477 -456 3 c-250 1 -459 -1 -462 -5z m533 -357 c0 -8 -10 -16 -22 -18 -22 -3 -23 -8 -26 -110 -2 -101 -4 -108 -23 -108 -25 0 -79 39 -79 57 0 16 22 17 38 1 17 -17 23 8 20 88 -3 67 -4 69 -30 72 -16 2 -28 9 -28 18 0 11 17 14 75 14 58 0 75 -3 75 -14z"/>
 <path d="M1012 2518 l3 -473 455 0 455 0 3 473 2 472 -460 0 -460 0 2 -472z m519 113 c34 -35 37 -68 8 -105 -15 -19 -30 -26 -55 -26 -29 0 -34 -3 -34 -24 0 -22 5 -25 43 -28 35 -3 43 -7 45 -26 3 -22 1 -23 -65 -20 l-68 3 -3 67 -3 67 48 3 c41 3 48 6 51 26 6 39 -16 55 -65 47 -35 -5 -43 -3 -43 9 0 21 29 35 73 36 29 0 45 -7 68 -29z"/>
 <path d="M1980 2527 c0 -347 3 -466 12 -475 9 -9 125 -12 460 -12 l448 0 0 475 0 475 -460 0 -460 0 0 -463z m502 23 c26 -58 47 -115 48 -127 0 -22 -3 -23 -85 -23 -84 0 -85 0 -85 25 0 22 4 24 54 27 l53 3 -43 95 c-23 52 -40 98 -37 103 3 4 15 7 26 5 17 -2 32 -27 69 -108z"/>
 <path d="M44 1985 c-2 -5 -3 -219 -2 -475 l3 -465 460 0 460 0 3 475 2 475 -461 0 c-299 0 -463 -4 -465 -10z m546 -350 c0 -11 -12 -15 -50 -15 -27 0 -50 -3 -50 -6 0 -3 18 -26 40 -52 46 -51 57 -83 44 -121 -12 -33 -52 -47 -101 -35 -29 7 -39 15 -41 33 -3 20 -1 23 15 16 39 -16 50 -16 62 -1 20 24 5 62 -44 115 -67 72 -63 81 40 81 69 0 85 -3 85 -15z"/>
 <path d="M2950 1517 l0 -477 463 2 462 3 0 473 0 472 -463 3 -462 2 0 -478z m511 122 c23 -16 29 -28 29 -58 0 -51 -18 -71 -68 -78 -39 -5 -43 -8 -40 -32 3 -23 8 -26 51 -29 39 -3 48 -6 45 -20 -3 -14 -15 -17 -68 -17 l-65 0 -3 68 -3 67 35 0 c49 0 66 9 66 35 0 34 -24 49 -70 41 -35 -5 -40 -4 -40 13 0 23 13 29 63 30 24 1 50 -7 68 -20z"/>
 <path d="M1017 1983 c-4 -3 -7 -212 -7 -463 0 -374 2 -460 14 -469 9 -8 138 -10 457 -9 l444 3 3 473 2 472 -453 0 c-250 0 -457 -3 -460 -7z m538 -348 c0 -13 -8 -21 -22 -23 -22 -3 -23 -7 -23 -108 0 -99 -1 -104 -21 -104 -32 0 -89 39 -89 61 0 23 4 23 35 3 l25 -16 0 81 c0 79 -1 81 -24 81 -28 0 -40 14 -32 36 4 12 21 14 78 12 65 -3 73 -5 73 -23z"/>
 <path d="M1985 1978 c-3 -7 -4 -220 -3 -473 l3 -460 455 0 455 0 3 473 2 472 -455 0 c-355 0 -457 -3 -460 -12z m600 -343 c0 -13 -8 -21 -22 -23 -22 -3 -23 -7 -23 -108 0 -100 -1 -104 -22 -104 -27 0 -88 46 -88 67 0 9 5 13 15 9 8 -3 22 -9 30 -12 13 -5 15 6 15 70 0 74 -1 76 -24 76 -28 0 -40 14 -32 36 4 12 21 14 78 12 65 -3 73 -5 73 -23z m-195 -75 c0 -17 -7 -20 -50 -20 -35 0 -50 4 -50 13 0 22 11 27 57 27 36 0 43 -3 43 -20z"/>
 <path d="M45 988 c-3 -7 -4 -222 -3 -478 l3 -465 462 -3 463 -2 0 480 0 480 -460 0 c-359 0 -462 -3 -465 -12z m545 -348 c0 -15 -7 -20 -25 -20 l-25 0 0 -110 c0 -95 -2 -110 -16 -110 -25 0 -84 40 -84 56 0 17 5 17 31 4 18 -10 19 -7 19 75 0 84 0 85 -25 85 -18 0 -25 5 -25 20 0 18 7 20 75 20 68 0 75 -2 75 -20z"/>
 <path d="M1021 986 c-8 -10 -10 -140 -9 -472 l3 -459 458 -3 457 -2 -2 472 -3 473 -446 3 c-369 2 -448 0 -458 -12z m517 -342 c29 -20 30 -74 2 -99 -19 -17 -19 -18 0 -43 25 -32 25 -57 0 -82 -27 -27 -89 -27 -124 1 -32 25 -33 47 -5 83 l22 27 -22 15 c-14 10 -21 26 -21 49 0 43 29 65 85 65 22 0 51 -7 63 -16z"/>
 <path d="M1443 604 c-8 -22 10 -49 32 -49 10 0 22 7 28 16 15 24 1 49 -28 49 -15 0 -28 -7 -32 -16z"/>
 <path d="M1450 485 c-18 -21 -5 -45 25 -45 14 0 28 7 31 15 7 17 -12 45 -31 45 -7 0 -18 -7 -25 -15z"/>
 <path d="M1992 992 c-10 -7 -12 -108 -10 -473 l3 -464 458 -3 457 -2 -2 472 -3 473 -445 2 c-245 2 -451 -1 -458 -5z m580 -362 c25 -31 23 -75 -4 -94 -20 -15 -21 -16 -5 -34 39 -43 4 -102 -59 -102 -45 0 -74 15 -74 39 0 17 3 18 29 8 34 -13 61 -4 61 21 0 26 -20 42 -53 42 -42 0 -33 33 12 40 42 6 61 31 41 55 -11 13 -23 15 -57 10 -45 -7 -57 6 -30 34 21 21 117 9 139 -19z m-182 -70 c0 -17 -7 -20 -50 -20 -35 0 -50 4 -50 13 0 22 11 27 57 27 36 0 43 -3 43 -20z"/>
 <path d="M2957 993 c-4 -3 -7 -219 -7 -480 l0 -473 463 2 462 3 0 475 0 475 -456 3 c-250 1 -459 -1 -462 -5z m514 -362 c27 -27 29 -35 29 -104 0 -65 -3 -77 -25 -101 -50 -54 -135 -22 -150 58 -26 134 66 226 146 147z"/>
 <path d="M3380 601 c-14 -28 -12 -123 4 -143 32 -43 66 -5 66 72 0 55 -16 90 -39 90 -11 0 -25 -9 -31 -19z"/>
 </g>
<g id="layer107" fill="#a9d18e" stroke="none">
 <path d="M50 3515 l0 -475 460 0 460 0 0 475 0 475 -460 0 -460 0 0 -475z m600 115 c0 -17 -7 -20 -51 -20 l-52 0 47 -50 c38 -40 46 -56 46 -86 0 -50 -23 -74 -72 -74 -49 0 -78 15 -78 40 0 23 4 24 31 10 26 -15 59 4 59 33 0 13 -21 47 -50 79 -72 81 -69 88 35 88 78 0 85 -2 85 -20z m-195 -70 c0 -20 -84 -27 -96 -9 -13 22 1 30 49 27 34 -2 47 -7 47 -18z"/>
 <path d="M1017 3983 c-9 -8 -9 -906 -1 -927 5 -14 55 -16 460 -16 l454 0 0 475 0 475 -453 0 c-250 0 -457 -3 -460 -7z m603 -353 c0 -15 -7 -20 -25 -20 l-25 0 0 -105 c0 -97 -1 -105 -19 -105 -31 0 -91 39 -84 56 6 17 9 17 34 4 18 -10 19 -7 19 70 0 77 -1 80 -23 80 -29 0 -37 7 -30 26 4 10 25 14 79 14 67 0 74 -2 74 -20z m-200 -70 c0 -17 -7 -20 -50 -20 -35 0 -50 4 -50 13 0 22 11 27 57 27 36 0 43 -3 43 -20z"/>
 <path d="M1980 3515 l0 -475 460 0 460 0 0 475 0 475 -460 0 -460 0 0 -475z m547 111 c-4 -9 -16 -16 -27 -16 -19 0 -20 -6 -20 -105 0 -100 -1 -105 -21 -105 -29 0 -89 38 -89 56 0 10 9 14 28 12 l27 -3 0 70 c0 69 0 70 -27 73 -20 2 -28 9 -28 22 0 17 9 19 73 22 77 3 93 -2 84 -26z"/>
 <path d="M2950 3515 l0 -475 460 0 460 0 0 475 0 475 -460 0 -460 0 0 -475z m524 110 c4 -14 11 -25 16 -25 6 0 10 -9 10 -20 0 -11 -7 -20 -16 -20 -13 0 -15 -13 -13 -77 l2 -78 -34 -3 c-33 -3 -35 0 -76 74 -24 42 -43 87 -43 100 0 22 4 24 50 24 45 0 50 3 56 25 4 15 13 25 24 25 11 0 20 -10 24 -25z"/>
 <path d="M3387 3511 c15 -27 31 -47 35 -45 4 3 8 25 8 50 0 44 0 44 -36 44 l-35 0 28 -49z"/>
 <path d="M52 2518 l3 -473 455 0 455 0 3 473 2 472 -460 0 -460 0 2 -472z m515 118 c22 -19 28 -32 28 -65 0 -52 -14 -64 -75 -71 -49 -5 -49 -5 -37 -30 10 -20 21 -26 55 -28 34 -3 43 -7 40 -20 -2 -12 -15 -18 -40 -20 -46 -4 -74 10 -98 51 -35 56 -20 183 22 200 33 13 78 6 105 -17z"/>
 <path d="M485 2608 c-3 -7 -6 -24 -7 -38 -3 -22 1 -25 30 -28 33 -3 33 -3 30 35 -2 31 -7 39 -26 41 -12 2 -24 -3 -27 -10z"/>
 <path d="M1012 2518 l3 -473 455 0 455 0 3 473 2 472 -460 0 -460 0 2 -472z m519 113 c34 -35 37 -68 8 -105 -15 -19 -30 -26 -55 -26 -29 0 -34 -3 -34 -24 0 -22 5 -25 43 -28 35 -3 43 -7 45 -26 3 -22 1 -23 -65 -20 l-68 3 -3 67 -3 67 48 3 c41 3 48 6 51 26 6 39 -16 55 -65 47 -35 -5 -43 -3 -43 9 0 21 29 35 73 36 29 0 45 -7 68 -29z"/>
 <path d="M1980 2527 c0 -347 3 -466 12 -475 9 -9 125 -12 460 -12 l448 0 0 475 0 475 -460 0 -460 0 0 -463z m502 23 c26 -58 47 -115 48 -127 0 -22 -3 -23 -85 -23 -84 0 -85 0 -85 25 0 22 4 24 54 27 l53 3 -43 95 c-23 52 -40 98 -37 103 3 4 15 7 26 5 17 -2 32 -27 69 -108z"/>
 <path d="M2950 2515 l0 -475 460 0 460 0 0 475 0 475 -460 0 -460 0 0 -475z m543 121 c7 -18 -1 -26 -25 -26 -16 0 -18 -10 -18 -105 l0 -105 -25 0 c-30 0 -85 38 -85 58 0 10 7 12 25 8 l25 -6 0 75 c0 73 -1 75 -25 75 -18 0 -25 5 -25 20 0 18 7 20 74 20 54 0 75 -4 79 -14z"/>
 <path d="M52 1518 l3 -473 455 0 455 0 3 473 2 472 -460 0 -460 0 2 -472z m538 117 c0 -23 -3 -25 -52 -25 l-52 0 43 -44 c35 -35 44 -53 48 -89 5 -38 2 -46 -18 -61 -44 -30 -129 -15 -129 23 0 14 8 18 43 17 59 -1 61 25 5 94 -62 76 -62 76 -55 94 5 13 22 16 87 16 79 0 80 0 80 -25z"/>
 <path d="M1017 1983 c-4 -3 -7 -212 -7 -463 0 -374 2 -460 14 -469 9 -8 138 -10 457 -9 l444 3 3 473 2 472 -453 0 c-250 0 -457 -3 -460 -7z m538 -348 c0 -13 -8 -21 -22 -23 -22 -3 -23 -7 -23 -108 0 -99 -1 -104 -21 -104 -32 0 -89 39 -89 61 0 23 4 23 35 3 l25 -16 0 81 c0 79 -1 81 -24 81 -28 0 -40 14 -32 36 4 12 21 14 78 12 65 -3 73 -5 73 -23z"/>
 <path d="M1985 1978 c-3 -7 -4 -220 -3 -473 l3 -460 455 0 455 0 3 473 2 472 -455 0 c-355 0 -457 -3 -460 -12z m600 -343 c0 -13 -8 -21 -22 -23 -22 -3 -23 -7 -23 -108 0 -100 -1 -104 -22 -104 -27 0 -88 46 -88 67 0 9 5 13 15 9 8 -3 22 -9 30 -12 13 -5 15 6 15 70 0 74 -1 76 -24 76 -28 0 -40 14 -32 36 4 12 21 14 78 12 65 -3 73 -5 73 -23z m-195 -75 c0 -17 -7 -20 -50 -20 -35 0 -50 4 -50 13 0 22 11 27 57 27 36 0 43 -3 43 -20z"/>
 <path d="M2950 1515 l0 -475 458 2 457 3 3 473 2 472 -460 0 -460 0 0 -475z m514 124 c21 -16 26 -29 26 -64 0 -51 -24 -75 -77 -75 -29 0 -33 -3 -33 -25 0 -23 3 -25 50 -25 47 0 50 -2 50 -25 0 -24 -2 -25 -70 -25 l-70 0 0 69 0 70 41 3 c85 6 80 74 -5 71 -38 -1 -46 2 -46 17 0 22 13 28 66 29 28 1 50 -6 68 -20z"/>
 <path d="M57 993 c-4 -3 -7 -217 -7 -475 l0 -468 460 0 460 0 0 469 c0 418 -2 470 -16 475 -21 8 -889 8 -897 -1z m533 -353 c0 -15 -7 -20 -25 -20 l-25 0 0 -110 c0 -104 -1 -110 -20 -110 -30 0 -90 42 -90 64 0 12 5 16 15 12 8 -3 22 -9 30 -12 13 -5 15 7 15 75 l0 81 -30 0 c-18 0 -30 5 -30 13 0 23 11 27 87 27 66 0 73 -2 73 -20z"/>
 <path d="M1021 986 c-8 -10 -10 -140 -9 -472 l3 -459 458 -3 457 -2 -2 472 -3 473 -446 3 c-369 2 -448 0 -458 -12z m517 -342 c29 -20 30 -74 2 -99 -19 -17 -19 -18 0 -43 25 -32 25 -57 0 -82 -27 -27 -89 -27 -124 1 -32 25 -33 47 -5 83 l22 27 -22 15 c-14 10 -21 26 -21 49 0 43 29 65 85 65 22 0 51 -7 63 -16z"/>
 <path d="M1443 604 c-8 -22 10 -49 32 -49 10 0 22 7 28 16 15 24 1 49 -28 49 -15 0 -28 -7 -32 -16z"/>
 <path d="M1450 485 c-18 -21 -5 -45 25 -45 14 0 28 7 31 15 7 17 -12 45 -31 45 -7 0 -18 -7 -25 -15z"/>
 <path d="M1992 992 c-10 -7 -12 -108 -10 -473 l3 -464 458 -3 457 -2 -2 472 -3 473 -445 2 c-245 2 -451 -1 -458 -5z m580 -362 c25 -31 23 -75 -4 -94 -20 -15 -21 -16 -5 -34 39 -43 4 -102 -59 -102 -45 0 -74 15 -74 39 0 17 3 18 29 8 34 -13 61 -4 61 21 0 26 -20 42 -53 42 -42 0 -33 33 12 40 42 6 61 31 41 55 -11 13 -23 15 -57 10 -45 -7 -57 6 -30 34 21 21 117 9 139 -19z m-182 -70 c0 -17 -7 -20 -50 -20 -35 0 -50 4 -50 13 0 22 11 27 57 27 36 0 43 -3 43 -20z"/>
 <path d="M2957 993 c-4 -3 -7 -217 -7 -475 l0 -468 460 0 460 0 -2 473 -3 472 -451 3 c-248 1 -454 -1 -457 -5z m514 -362 c27 -27 29 -35 29 -106 0 -67 -3 -79 -25 -100 -52 -53 -136 -20 -151 60 -25 138 65 228 147 146z"/>
 <path d="M3385 608 c-23 -75 -9 -168 26 -168 23 0 39 35 39 90 0 55 -15 90 -40 90 -11 0 -22 -6 -25 -12z"/>
 </g>
<g id="layer108" fill="#ffe699" stroke="none">
 <path d="M50 3515 l0 -475 460 0 460 0 0 475 0 475 -460 0 -460 0 0 -475z m600 115 c0 -17 -7 -20 -51 -20 l-52 0 47 -50 c38 -40 46 -56 46 -86 0 -50 -23 -74 -72 -74 -49 0 -78 15 -78 40 0 23 4 24 31 10 26 -15 59 4 59 33 0 13 -21 47 -50 79 -72 81 -69 88 35 88 78 0 85 -2 85 -20z m-195 -70 c0 -20 -84 -27 -96 -9 -13 22 1 30 49 27 34 -2 47 -7 47 -18z"/>
 <path d="M1017 3983 c-9 -8 -9 -906 -1 -927 5 -14 55 -16 460 -16 l454 0 0 475 0 475 -453 0 c-250 0 -457 -3 -460 -7z m603 -353 c0 -15 -7 -20 -25 -20 l-25 0 0 -105 c0 -97 -1 -105 -19 -105 -31 0 -91 39 -84 56 6 17 9 17 34 4 18 -10 19 -7 19 70 0 77 -1 80 -23 80 -29 0 -37 7 -30 26 4 10 25 14 79 14 67 0 74 -2 74 -20z m-200 -70 c0 -17 -7 -20 -50 -20 -35 0 -50 4 -50 13 0 22 11 27 57 27 36 0 43 -3 43 -20z"/>
 <path d="M1980 3515 l0 -475 460 0 460 0 0 475 0 475 -460 0 -460 0 0 -475z m547 111 c-4 -9 -16 -16 -27 -16 -19 0 -20 -6 -20 -105 0 -100 -1 -105 -21 -105 -29 0 -89 38 -89 56 0 10 9 14 28 12 l27 -3 0 70 c0 69 0 70 -27 73 -20 2 -28 9 -28 22 0 17 9 19 73 22 77 3 93 -2 84 -26z"/>
 <path d="M2950 3515 l0 -475 460 0 460 0 0 475 0 475 -460 0 -460 0 0 -475z m524 110 c4 -14 11 -25 16 -25 6 0 10 -9 10 -20 0 -11 -7 -20 -16 -20 -13 0 -15 -13 -13 -77 l2 -78 -34 -3 c-33 -3 -35 0 -76 74 -24 42 -43 87 -43 100 0 22 4 24 50 24 45 0 50 3 56 25 4 15 13 25 24 25 11 0 20 -10 24 -25z"/>
 <path d="M3387 3511 c15 -27 31 -47 35 -45 4 3 8 25 8 50 0 44 0 44 -36 44 l-35 0 28 -49z"/>
 <path d="M52 2518 l3 -473 455 0 455 0 3 473 2 472 -460 0 -460 0 2 -472z m515 118 c22 -19 28 -32 28 -65 0 -52 -14 -64 -75 -71 -49 -5 -49 -5 -37 -30 10 -20 21 -26 55 -28 34 -3 43 -7 40 -20 -2 -12 -15 -18 -40 -20 -46 -4 -74 10 -98 51 -35 56 -20 183 22 200 33 13 78 6 105 -17z"/>
 <path d="M485 2608 c-3 -7 -6 -24 -7 -38 -3 -22 1 -25 30 -28 33 -3 33 -3 30 35 -2 31 -7 39 -26 41 -12 2 -24 -3 -27 -10z"/>
 <path d="M2950 2515 l0 -475 460 0 460 0 0 475 0 475 -460 0 -460 0 0 -475z m543 121 c7 -18 -1 -26 -25 -26 -16 0 -18 -10 -18 -105 l0 -105 -25 0 c-30 0 -85 38 -85 58 0 10 7 12 25 8 l25 -6 0 75 c0 73 -1 75 -25 75 -18 0 -25 5 -25 20 0 18 7 20 74 20 54 0 75 -4 79 -14z"/>
 <path d="M52 1518 l3 -473 455 0 455 0 3 473 2 472 -460 0 -460 0 2 -472z m538 117 c0 -23 -3 -25 -52 -25 l-52 0 43 -44 c35 -35 44 -53 48 -89 5 -38 2 -46 -18 -61 -44 -30 -129 -15 -129 23 0 14 8 18 43 17 59 -1 61 25 5 94 -62 76 -62 76 -55 94 5 13 22 16 87 16 79 0 80 0 80 -25z"/>
 <path d="M2950 1515 l0 -475 458 2 457 3 3 473 2 472 -460 0 -460 0 0 -475z m514 124 c21 -16 26 -29 26 -64 0 -51 -24 -75 -77 -75 -29 0 -33 -3 -33 -25 0 -23 3 -25 50 -25 47 0 50 -2 50 -25 0 -24 -2 -25 -70 -25 l-70 0 0 69 0 70 41 3 c85 6 80 74 -5 71 -38 -1 -46 2 -46 17 0 22 13 28 66 29 28 1 50 -6 68 -20z"/>
 <path d="M57 993 c-4 -3 -7 -217 -7 -475 l0 -468 460 0 460 0 0 469 c0 418 -2 470 -16 475 -21 8 -889 8 -897 -1z m533 -353 c0 -15 -7 -20 -25 -20 l-25 0 0 -110 c0 -104 -1 -110 -20 -110 -30 0 -90 42 -90 64 0 12 5 16 15 12 8 -3 22 -9 30 -12 13 -5 15 7 15 75 l0 81 -30 0 c-18 0 -30 5 -30 13 0 23 11 27 87 27 66 0 73 -2 73 -20z"/>
 <path d="M1021 986 c-8 -10 -10 -140 -9 -472 l3 -459 458 -3 457 -2 -2 472 -3 473 -446 3 c-369 2 -448 0 -458 -12z m517 -342 c29 -20 30 -74 2 -99 -19 -17 -19 -18 0 -43 25 -32 25 -57 0 -82 -27 -27 -89 -27 -124 1 -32 25 -33 47 -5 83 l22 27 -22 15 c-14 10 -21 26 -21 49 0 43 29 65 85 65 22 0 51 -7 63 -16z"/>
 <path d="M1443 604 c-8 -22 10 -49 32 -49 10 0 22 7 28 16 15 24 1 49 -28 49 -15 0 -28 -7 -32 -16z"/>
 <path d="M1450 485 c-18 -21 -5 -45 25 -45 14 0 28 7 31 15 7 17 -12 45 -31 45 -7 0 -18 -7 -25 -15z"/>
 <path d="M1992 992 c-10 -7 -12 -108 -10 -473 l3 -464 458 -3 457 -2 -2 472 -3 473 -445 2 c-245 2 -451 -1 -458 -5z m580 -362 c25 -31 23 -75 -4 -94 -20 -15 -21 -16 -5 -34 39 -43 4 -102 -59 -102 -45 0 -74 15 -74 39 0 17 3 18 29 8 34 -13 61 -4 61 21 0 26 -20 42 -53 42 -42 0 -33 33 12 40 42 6 61 31 41 55 -11 13 -23 15 -57 10 -45 -7 -57 6 -30 34 21 21 117 9 139 -19z m-182 -70 c0 -17 -7 -20 -50 -20 -35 0 -50 4 -50 13 0 22 11 27 57 27 36 0 43 -3 43 -20z"/>
 <path d="M2957 993 c-4 -3 -7 -217 -7 -475 l0 -468 460 0 460 0 -2 473 -3 472 -451 3 c-248 1 -454 -1 -457 -5z m514 -362 c27 -27 29 -35 29 -106 0 -67 -3 -79 -25 -100 -52 -53 -136 -20 -151 60 -25 138 65 228 147 146z"/>
 <path d="M3385 608 c-23 -75 -9 -168 26 -168 23 0 39 35 39 90 0 55 -15 90 -40 90 -11 0 -22 -6 -25 -12z"/>
 </g>
<g id="layer109" fill="#ffffff" stroke="none">
 <path d="M50 3515 l0 -475 460 0 460 0 0 475 0 475 -460 0 -460 0 0 -475z m600 115 c0 -17 -7 -20 -51 -20 l-52 0 47 -50 c38 -40 46 -56 46 -86 0 -50 -23 -74 -72 -74 -49 0 -78 15 -78 40 0 23 4 24 31 10 26 -15 59 4 59 33 0 13 -21 47 -50 79 -72 81 -69 88 35 88 78 0 85 -2 85 -20z m-195 -70 c0 -20 -84 -27 -96 -9 -13 22 1 30 49 27 34 -2 47 -7 47 -18z"/>
 <path d="M2950 3515 l0 -475 460 0 460 0 0 475 0 475 -460 0 -460 0 0 -475z m524 110 c4 -14 11 -25 16 -25 6 0 10 -9 10 -20 0 -11 -7 -20 -16 -20 -13 0 -15 -13 -13 -77 l2 -78 -34 -3 c-33 -3 -35 0 -76 74 -24 42 -43 87 -43 100 0 22 4 24 50 24 45 0 50 3 56 25 4 15 13 25 24 25 11 0 20 -10 24 -25z"/>
 <path d="M3387 3511 c15 -27 31 -47 35 -45 4 3 8 25 8 50 0 44 0 44 -36 44 l-35 0 28 -49z"/>
 <path d="M52 2518 l3 -473 455 0 455 0 3 473 2 472 -460 0 -460 0 2 -472z m515 118 c22 -19 28 -32 28 -65 0 -52 -14 -64 -75 -71 -49 -5 -49 -5 -37 -30 10 -20 21 -26 55 -28 34 -3 43 -7 40 -20 -2 -12 -15 -18 -40 -20 -46 -4 -74 10 -98 51 -35 56 -20 183 22 200 33 13 78 6 105 -17z"/>
 <path d="M485 2608 c-3 -7 -6 -24 -7 -38 -3 -22 1 -25 30 -28 33 -3 33 -3 30 35 -2 31 -7 39 -26 41 -12 2 -24 -3 -27 -10z"/>
 <path d="M2950 2515 l0 -475 460 0 460 0 0 475 0 475 -460 0 -460 0 0 -475z m543 121 c7 -18 -1 -26 -25 -26 -16 0 -18 -10 -18 -105 l0 -105 -25 0 c-30 0 -85 38 -85 58 0 10 7 12 25 8 l25 -6 0 75 c0 73 -1 75 -25 75 -18 0 -25 5 -25 20 0 18 7 20 74 20 54 0 75 -4 79 -14z"/>
 <path d="M52 1518 l3 -473 455 0 455 0 3 473 2 472 -460 0 -460 0 2 -472z m538 117 c0 -23 -3 -25 -52 -25 l-52 0 43 -44 c35 -35 44 -53 48 -89 5 -38 2 -46 -18 -61 -44 -30 -129 -15 -129 23 0 14 8 18 43 17 59 -1 61 25 5 94 -62 76 -62 76 -55 94 5 13 22 16 87 16 79 0 80 0 80 -25z"/>
 <path d="M2950 1515 l0 -475 458 2 457 3 3 473 2 472 -460 0 -460 0 0 -475z m514 124 c21 -16 26 -29 26 -64 0 -51 -24 -75 -77 -75 -29 0 -33 -3 -33 -25 0 -23 3 -25 50 -25 47 0 50 -2 50 -25 0 -24 -2 -25 -70 -25 l-70 0 0 69 0 70 41 3 c85 6 80 74 -5 71 -38 -1 -46 2 -46 17 0 22 13 28 66 29 28 1 50 -6 68 -20z"/>
 <path d="M57 993 c-4 -3 -7 -217 -7 -475 l0 -468 460 0 460 0 0 469 c0 418 -2 470 -16 475 -21 8 -889 8 -897 -1z m533 -353 c0 -15 -7 -20 -25 -20 l-25 0 0 -110 c0 -104 -1 -110 -20 -110 -30 0 -90 42 -90 64 0 12 5 16 15 12 8 -3 22 -9 30 -12 13 -5 15 7 15 75 l0 81 -30 0 c-18 0 -30 5 -30 13 0 23 11 27 87 27 66 0 73 -2 73 -20z"/>
 <path d="M2957 993 c-4 -3 -7 -217 -7 -475 l0 -468 460 0 460 0 -2 473 -3 472 -451 3 c-248 1 -454 -1 -457 -5z m514 -362 c27 -27 29 -35 29 -106 0 -67 -3 -79 -25 -100 -52 -53 -136 -20 -151 60 -25 138 65 228 147 146z"/>
 <path d="M3385 608 c-23 -75 -9 -168 26 -168 23 0 39 35 39 90 0 55 -15 90 -40 90 -11 0 -22 -6 -25 -12z"/>
 </g>

</svg>